<?xml version="1.0" encoding="UTF-8" standalone="no"?>
<!DOCTYPE svg PUBLIC "-//W3C//DTD SVG 1.1//EN" "http://www.w3.org/Graphics/SVG/1.1/DTD/svg11.dtd">
<!-- Created with Vectornator (http://vectornator.io/) -->
<svg height="700px" width="700px" stroke-miterlimit="10"
    style="fill-rule:nonzero;clip-rule:evenodd;stroke-linecap:round;stroke-linejoin:round;" version="1.1"
    viewBox="0 0 700 700" xml:space="preserve" xmlns="http://www.w3.org/2000/svg"
    xmlns:xlink="http://www.w3.org/1999/xlink">
    <defs />
    <!-- White rounded square background for macOS icon style -->
    <rect x="0" y="0" width="700" height="700" rx="140" ry="140" fill="#fff" />
    <g id="Layer-1">
        <g transform="translate(26,217)">
            <!-- ...existing SVG content... -->
            <!-- Mill base shape, light green -->
            <rect x="181.96" y="125.487" width="284.383" height="24.542" rx="12" fill="#b6e36c" />
            <path d="M109.625 106.333L164.971 106.333L164.971 194.742L164.971 265.901L109.625 265.901L109.625 106.333Z"
                fill="#539a46" fill-rule="nonzero" opacity="1" stroke="none" />
            <path d="M483.333 106.333L538.678 106.333L538.678 194.742L538.678 265.901L483.333 265.901L483.333 106.333Z"
                fill="#539a46" fill-rule="nonzero" opacity="1" stroke="none" />
            <path d="M181.96 125.487L466.343 125.487L466.343 150.029L181.96 150.029L181.96 125.487Z" fill="#e7e3de"
                fill-rule="nonzero" opacity="1" stroke="none" />
            <path d="M164.971 150.029L483.333 150.029L483.333 162.557L164.971 162.557L164.971 150.029Z" fill="#49883d"
                fill-rule="nonzero" opacity="1" stroke="none" />
            <path d="M109.625 156.293L164.971 156.293L164.971 266L109.625 265.901L109.625 156.293Z" fill="#417a37"
                fill-rule="nonzero" opacity="1" stroke="none" />
            <path d="M483.333 156.293L538.678 156.293L538.678 266L483.333 266L483.333 156.293Z" fill="#417a37"
                fill-rule="nonzero" opacity="1" stroke="none" />
            <path d="M181.711 162.557L466.093 162.557L466.093 211.147L181.711 211.147L181.711 162.557Z" fill="#c5c2bf"
                fill-rule="nonzero" opacity="1" stroke="none" />
            <path d="M164.971 223.809L181.711 223.809L181.711 234.182L164.971 234.182L164.971 223.809Z" fill="#4c4c4c"
                fill-rule="nonzero" opacity="1" stroke="none" />
            <path d="M466.093 223.809L483.333 223.809L483.333 234.182L466.093 234.182L466.093 223.809Z" fill="#4c4c4c"
                fill-rule="nonzero" opacity="1" stroke="none" />
            <path d="M181.711 211.147L466.093 211.147L466.093 228.995L181.711 228.995L181.711 211.147Z" fill="#d0cdc8"
                fill-rule="nonzero" opacity="1" stroke="none" />
            <path d="M181.96 228.995L466.343 228.995L466.343 246.844L181.96 246.844L181.96 228.995Z" fill="#b5b3b1"
                fill-rule="nonzero" opacity="1" stroke="none" />
            <path d="M0 125.487L109.625 125.487L109.625 146.838L0 146.838L0 125.487Z" fill="#49883d" fill-rule="nonzero"
                opacity="1" stroke="none" />
            <path d="M54.2639 40.9675L79.5924 40.9675L79.5924 89.7214L54.2639 89.7214L54.2639 40.9675Z" fill="#60ad53"
                fill-rule="nonzero" opacity="0" stroke="none" />
            <path d="M538.678 125.487L648.303 125.487L648.303 146.838L538.678 146.838L538.678 125.487Z" fill="#49883d"
                fill-rule="nonzero" opacity="1" stroke="none" />
            <path d="M67.9269 56.8656L75.488 56.8656L75.488 64.4507L67.9269 64.4507L67.9269 56.8656Z" fill="#000000"
                fill-rule="nonzero" opacity="0" stroke="none" />
            <path d="M57.8212 56.8656L65.3824 56.8656L65.3824 64.4507L57.8212 64.4507L57.8212 56.8656Z" fill="#000000"
                fill-rule="nonzero" opacity="0" stroke="none" />
            <path
                d="M63.1476 51.6673C63.1476 49.5793 64.8402 47.8867 66.9281 47.8867L66.9281 47.8867C69.0161 47.8867 70.7087 49.5793 70.7087 51.6673L70.7087 51.6911C70.7087 53.7791 69.0161 55.4717 66.9281 55.4717L66.9281 55.4717C64.8402 55.4717 63.1476 53.7791 63.1476 51.6911L63.1476 51.6673Z"
                fill="#000000" fill-rule="nonzero" opacity="0" stroke="none" />
            <path d="M63.1476 65.3445L70.7087 65.3445L70.7087 72.9295L63.1476 72.9295L63.1476 65.3445Z" fill="#000000"
                fill-rule="nonzero" opacity="0" stroke="none" />
            <path d="M63.1476 73.8233L70.7087 73.8233L70.7087 81.4083L63.1476 81.4083L63.1476 73.8233Z" fill="#000000"
                fill-rule="nonzero" opacity="0" stroke="none" />
            <g opacity="1">
                <path d="M164.971 65.7966L483.333 65.7966L483.333 125.409L164.971 125.409L164.971 65.7966Z"
                    fill="#4c4c4c" fill-rule="nonzero" opacity="1" stroke="none" />
                <path d="M164.971 47.4263L483.333 47.4263L483.333 68.134L164.971 68.134L164.971 47.4263Z" fill="#a4a7aa"
                    fill-rule="nonzero" opacity="1" stroke="none" />
                <path
                    d="M227.623 19.3908L240.855 19.3908L240.855 37.8207L240.855 56.4571L227.623 56.4571L227.623 35.4579L227.623 19.3908Z"
                    fill="#ce8f43" fill-rule="nonzero" opacity="1" stroke="none" />
                <path
                    d="M396.285 19.3908L409.516 19.3908L409.516 37.8207L409.516 56.4571L396.285 56.4571L396.285 47.1091L396.285 19.3908Z"
                    fill="#ce8f43" fill-rule="nonzero" opacity="1" stroke="none" />
            </g>
            <path d="M68.4549 57.395L74.96 57.395L74.96 63.9213L68.4549 63.9213L68.4549 57.395Z" fill="#24c235"
                fill-rule="nonzero" opacity="0" stroke="none" />
            <path d="M58.3492 57.395L64.8543 57.395L64.8543 63.9213L58.3492 63.9213L58.3492 57.395Z" fill="#24c235"
                fill-rule="nonzero" opacity="0" stroke="none" />
            <path
                d="M63.6756 51.6686C63.6756 49.8723 65.1318 48.416 66.9281 48.416L66.9281 48.416C68.7245 48.416 70.1807 49.8723 70.1807 51.6686L70.1807 51.6898C70.1807 53.4861 68.7245 54.9423 66.9281 54.9423L66.9281 54.9423C65.1318 54.9423 63.6756 53.4861 63.6756 51.6898L63.6756 51.6686Z"
                fill="#eb1c1c" fill-rule="nonzero" opacity="0" stroke="none" />
            <path d="M63.6756 65.8738L70.1807 65.8738L70.1807 72.4001L63.6756 72.4001L63.6756 65.8738Z" fill="#c42d2d"
                fill-rule="nonzero" opacity="0" stroke="none" />
            <path d="M63.6756 74.3527L70.1807 74.3527L70.1807 80.8789L63.6756 80.8789L63.6756 74.3527Z" fill="#4c4c4c"
                fill-rule="nonzero" opacity="0" stroke="none" />
            <path d="M7.10543e-15 125.487L109.625 125.487L109.625 136.162L7.10543e-15 136.162L7.10543e-15 125.487Z"
                fill="#58904d" fill-rule="nonzero" opacity="1" stroke="none" />
            <path d="M538.678 125.487L648.303 125.487L648.303 136.162L538.678 136.162L538.678 125.487Z" fill="#58904d"
                fill-rule="nonzero" opacity="1" stroke="none" />
        </g>
    </g>
</svg>