<svg xmlns="http://www.w3.org/2000/svg" id="Outline" viewBox="0 0 32 32" width="512" height="512" stroke="#757980">
    <!-- Hollow 4x4 grid: 4 rows, 4 columns, each cell 5x5 with 2px gap, stroke only, starting at 1,1 -->
    <rect x="1" y="1" width="5" height="5" rx="1.5" fill="none" stroke-width="1.5" />
    <rect x="9" y="1" width="5" height="5" rx="1.5" fill="none" stroke-width="1.5" />
    <rect x="17" y="1" width="5" height="5" rx="1.5" fill="none" stroke-width="1.5" />
    <rect x="25" y="1" width="5" height="5" rx="1.5" fill="none" stroke-width="1.5" />

    <rect x="1" y="9" width="5" height="5" rx="1.5" fill="none" stroke-width="1.5" />
    <rect x="9" y="9" width="5" height="5" rx="1.5" fill="none" stroke-width="1.5" />
    <rect x="17" y="9" width="5" height="5" rx="1.5" fill="none" stroke-width="1.5" />
    <rect x="25" y="9" width="5" height="5" rx="1.5" fill="none" stroke-width="1.5" />

    <rect x="1" y="17" width="5" height="5" rx="1.5" fill="none" stroke-width="1.5" />
    <rect x="9" y="17" width="5" height="5" rx="1.5" fill="none" stroke-width="1.5" />
    <rect x="17" y="17" width="5" height="5" rx="1.5" fill="none" stroke-width="1.5" />
    <rect x="25" y="17" width="5" height="5" rx="1.5" fill="none" stroke-width="1.5" />

    <rect x="1" y="25" width="5" height="5" rx="1.5" fill="none" stroke-width="1.5" />
    <rect x="9" y="25" width="5" height="5" rx="1.5" fill="none" stroke-width="1.5" />
    <rect x="17" y="25" width="5" height="5" rx="1.5" fill="none" stroke-width="1.5" />
    <rect x="25" y="25" width="5" height="5" rx="1.5" fill="none" stroke-width="1.5" />
</svg>