<?xml version="1.0" encoding="UTF-8" standalone="no"?>
<!DOCTYPE svg PUBLIC "-//W3C//DTD SVG 1.1//EN" "http://www.w3.org/Graphics/SVG/1.1/DTD/svg11.dtd">
<!-- Created with Vectornator (http://vectornator.io/) -->
<svg height="261.0px" stroke-miterlimit="10" style="fill-rule:nonzero;clip-rule:evenodd;stroke-linecap:round;stroke-linejoin:round;" version="1.1" viewBox="0 0 648 261" width="648.0px" xml:space="preserve" xmlns="http://www.w3.org/2000/svg" xmlns:xlink="http://www.w3.org/1999/xlink">
<defs/>
<clipPath id="ArtboardFrame">
<rect height="261" width="648" x="0" y="0"/>
</clipPath>
<g clip-path="url(#ArtboardFrame)" id="Layer-1">
<g opacity="1">
<g opacity="1">
<g opacity="1">
<g opacity="1">
<g opacity="1">
<path d="M109.625 101.87L164.971 101.87L164.971 190.279L164.971 261.438L109.625 261.438L109.625 101.87Z" fill="#539a46" fill-rule="nonzero" opacity="1" stroke="none"/>
</g>
</g>
</g>
</g>
</g>
<g opacity="1">
<g opacity="1">
<g opacity="1">
<g opacity="1">
<g opacity="1">
<path d="M483.333 101.87L538.678 101.87L538.678 190.279L538.678 261.438L483.333 261.438L483.333 101.87Z" fill="#539a46" fill-rule="nonzero" opacity="1" stroke="none"/>
</g>
</g>
</g>
</g>
</g>
<g opacity="1">
<path d="M164.971 61.2566L483.333 61.2566L483.333 120.869L164.971 120.869L164.971 61.2566Z" fill="#3f3f3f" fill-rule="nonzero" opacity="1" stroke="none"/>
<path d="M164.971 42.8863L483.333 42.8863L483.333 61.2566L164.971 61.2566L164.971 42.8863Z" fill="#8c8c8c" fill-rule="nonzero" opacity="1" stroke="none"/>
<path d="M227.623 15.0051L240.855 15.0051L240.855 33.435L240.855 52.0714L227.623 52.0714L227.623 31.0722L227.623 15.0051Z" fill="#ab793c" fill-rule="nonzero" opacity="1" stroke="none"/>
<path d="M396.285 15.0051L409.516 15.0051L409.516 33.435L409.516 52.0714L396.285 52.0714L396.285 42.7234L396.285 15.0051Z" fill="#ab793c" fill-rule="nonzero" opacity="1" stroke="none"/>
</g>
<path d="M181.96 121.024L466.343 121.024L466.343 145.566L181.96 145.566L181.96 121.024Z" fill="#e7e3de" fill-rule="nonzero" opacity="1" stroke="none"/>
<path d="M164.971 145.566L483.333 145.566L483.333 158.095L164.971 158.095L164.971 145.566Z" fill="#49883d" fill-rule="nonzero" opacity="1" stroke="none"/>
<path d="M109.625 151.83L164.971 151.83L164.971 261.537L109.625 261.438L109.625 151.83Z" fill="#417a37" fill-rule="nonzero" opacity="1" stroke="none"/>
<path d="M483.333 151.83L538.678 151.83L538.678 261.537L483.333 261.537L483.333 151.83Z" fill="#417a37" fill-rule="nonzero" opacity="1" stroke="none"/>
<path d="M181.711 158.095L466.093 158.095L466.093 206.684L181.711 206.684L181.711 158.095Z" fill="#c5c2bf" fill-rule="nonzero" opacity="1" stroke="none"/>
<path d="M164.971 219.346L181.711 219.346L181.711 229.719L164.971 229.719L164.971 219.346Z" fill="#4c4c4c" fill-rule="nonzero" opacity="1" stroke="none"/>
<path d="M466.093 219.346L483.333 219.346L483.333 229.719L466.093 229.719L466.093 219.346Z" fill="#4c4c4c" fill-rule="nonzero" opacity="1" stroke="none"/>
<path d="M181.711 206.684L466.093 206.684L466.093 224.532L181.711 224.532L181.711 206.684Z" fill="#d0cdc8" fill-rule="nonzero" opacity="1" stroke="none"/>
<path d="M181.96 224.532L466.343 224.532L466.343 242.381L181.96 242.381L181.96 224.532Z" fill="#b5b3b1" fill-rule="nonzero" opacity="1" stroke="none"/>
<path d="M0 121.024L109.625 121.024L109.625 142.375L0 142.375L0 121.024Z" fill="#49883d" fill-rule="nonzero" opacity="1" stroke="none"/>
<path d="M54.2639 36.5046L79.5924 36.5046L79.5924 85.2585L54.2639 85.2585L54.2639 36.5046Z" fill="#60ad53" fill-rule="nonzero" opacity="0" stroke="none"/>
<path d="M538.678 121.024L648.303 121.024L648.303 142.375L538.678 142.375L538.678 121.024Z" fill="#49883d" fill-rule="nonzero" opacity="1" stroke="none"/>
<path d="M67.9269 52.4028L75.488 52.4028L75.488 59.9878L67.9269 59.9878L67.9269 52.4028Z" fill="#000000" fill-rule="nonzero" opacity="0" stroke="none"/>
<path d="M57.8212 52.4028L65.3824 52.4028L65.3824 59.9878L57.8212 59.9878L57.8212 52.4028Z" fill="#000000" fill-rule="nonzero" opacity="0" stroke="none"/>
<path d="M63.1476 47.2044C63.1476 45.1164 64.8402 43.4238 66.9281 43.4238L66.9281 43.4238C69.0161 43.4238 70.7087 45.1164 70.7087 47.2044L70.7087 47.2282C70.7087 49.3162 69.0161 51.0088 66.9281 51.0088L66.9281 51.0088C64.8402 51.0088 63.1476 49.3162 63.1476 47.2282L63.1476 47.2044Z" fill="#000000" fill-rule="nonzero" opacity="0" stroke="none"/>
<path d="M63.1476 60.8816L70.7087 60.8816L70.7087 68.4666L63.1476 68.4666L63.1476 60.8816Z" fill="#000000" fill-rule="nonzero" opacity="0" stroke="none"/>
<path d="M63.1476 69.3604L70.7087 69.3604L70.7087 76.9454L63.1476 76.9454L63.1476 69.3604Z" fill="#000000" fill-rule="nonzero" opacity="0" stroke="none"/>
<g opacity="1">
<path d="M164.971 46.2515L483.333 46.2515L483.333 105.864L164.971 105.864L164.971 46.2515Z" fill="#4c4c4c" fill-rule="nonzero" opacity="1" stroke="none"/>
<path d="M164.971 27.8812L483.333 27.8812L483.333 46.2515L164.971 46.2515L164.971 27.8812Z" fill="#a4a7aa" fill-rule="nonzero" opacity="1" stroke="none"/>
<path d="M227.623 0L240.855 0L240.855 18.4299L240.855 37.0663L227.623 37.0663L227.623 16.0671L227.623 0Z" fill="#ce8f43" fill-rule="nonzero" opacity="1" stroke="none"/>
<path d="M396.285 0L409.516 0L409.516 18.4299L409.516 37.0663L396.285 37.0663L396.285 27.7183L396.285 0Z" fill="#ce8f43" fill-rule="nonzero" opacity="1" stroke="none"/>
</g>
<path d="M68.4549 52.9321L74.96 52.9321L74.96 59.4584L68.4549 59.4584L68.4549 52.9321Z" fill="#24c235" fill-rule="nonzero" opacity="0" stroke="none"/>
<path d="M58.3492 52.9321L64.8543 52.9321L64.8543 59.4584L58.3492 59.4584L58.3492 52.9321Z" fill="#24c235" fill-rule="nonzero" opacity="0" stroke="none"/>
<path d="M63.6756 47.2057C63.6756 45.4094 65.1318 43.9532 66.9281 43.9532L66.9281 43.9532C68.7245 43.9532 70.1807 45.4094 70.1807 47.2057L70.1807 47.2269C70.1807 49.0232 68.7245 50.4794 66.9281 50.4794L66.9281 50.4794C65.1318 50.4794 63.6756 49.0232 63.6756 47.2269L63.6756 47.2057Z" fill="#eb1c1c" fill-rule="nonzero" opacity="0" stroke="none"/>
<path d="M63.6756 61.4109L70.1807 61.4109L70.1807 67.9372L63.6756 67.9372L63.6756 61.4109Z" fill="#c42d2d" fill-rule="nonzero" opacity="0" stroke="none"/>
<path d="M63.6756 69.8898L70.1807 69.8898L70.1807 76.416L63.6756 76.416L63.6756 69.8898Z" fill="#4c4c4c" fill-rule="nonzero" opacity="0" stroke="none"/>
<path d="M7.10543e-15 121.024L109.625 121.024L109.625 131.699L7.10543e-15 131.699L7.10543e-15 121.024Z" fill="#58904d" fill-rule="nonzero" opacity="1" stroke="none"/>
<path d="M538.678 121.024L648.303 121.024L648.303 131.699L538.678 131.699L538.678 121.024Z" fill="#58904d" fill-rule="nonzero" opacity="1" stroke="none"/>
</g>
</svg>
